# xmcd
#
# Track frame offsets: 
#        150
#        11123
#        32523
#        47888
#        65426
#        78713
#        96166
#        109622
#
# Disc length: 1669 seconds
#
# Revision: 0
# Processed by: cddbd v1.5.2PL0 Copyright (c) Steve Scherf et al.
# Submitted via: ExactAudioCopy v0.90b4
#
DISCID=62068308
DTITLE=Lynn Chisholm - Timing
DYEAR=2007
DGENRE=Country
TTITLE0=I Can't Help It (if I'm Still in Love with You)
TTITLE1=Molly Bawn
TTITLE2=Cold Cold Heart
TTITLE3=Leaving of Liverpool
TTITLE4=Your Cheating Heart
TTITLE5=Wild Mountain Thyme
TTITLE6=May You Never Be Alone Like Me
TTITLE7=Put My Little Shoes Away
EXTD=
EXTT0=
EXTT1=
EXTT2=
EXTT3=
EXTT4=
EXTT5=
EXTT6=
EXTT7=
PLAYORDER=
